<svg id="Layer_1" data-name="Layer 1" xmlns="http://www.w3.org/2000/svg" viewBox="0 0 300 300"><defs><style>.cls-1{fill:#fff3e3;}.cls-2{fill:#b9e1d6;}.cls-3{fill:#ddf0ea;}.cls-4{fill:#cacce7;}.cls-5{fill:none;}.cls-6{fill:#41c2cc;}.cls-7{fill:#6acad3;}.cls-8{fill:#b8e2e6;}.cls-9{fill:#2cb997;}.cls-10{fill:#21becb;}.cls-11{fill:#faae61;}.cls-12{fill:#fad0a5;}.cls-13{fill:#828bc5;}.cls-14{fill:#32b1b6;}</style></defs><rect class="cls-1" x="24.81" y="84.86" width="249.79" height="181.29"/><polygon class="cls-2" points="105.06 90.91 265.42 90.91 280.82 221.66 88.26 221.66 105.06 90.91"/><polygon class="cls-3" points="117.17 100.86 253.11 100.86 266.16 211.71 102.92 211.71 117.17 100.86"/><rect class="cls-4" x="134.08" y="23.97" width="140.52" height="164.42"/><rect class="cls-1" x="145.18" y="38.28" width="116.29" height="136.24"/><rect class="cls-5" x="48.59" y="163.05" width="47.89" height="7.71"/><path class="cls-5" d="M89.36,80.09l.15-.88A2.55,2.55,0,0,0,89.36,80.09Z"/><rect class="cls-5" x="48.59" y="163.05" width="47.89" height="7.71"/><path class="cls-6" d="M94.58,71.21c-.08.14-.14.3-.21.43h.08c.22-.5.42-1,.62-1.5C94.91,70.5,94.75,70.87,94.58,71.21Z"/><ellipse class="cls-7" cx="82" cy="54.15" rx="24.28" ry="30.18"/><path class="cls-7" d="M118.62,123.94a6.49,6.49,0,0,0,2.27-2.73c.4-1.24-.06-2.6.2-3.88a20.24,20.24,0,0,1,1.07-2.66c1.41-4-2.25-8-5.89-10.25-4.46-2.74-9.41-4.61-13.88-7.33A42.06,42.06,0,0,1,88.28,82.91c1.3-1.48,2.78-3,4.16-4.57a9.91,9.91,0,0,1-.66-2.49L69,79.65s-.52,9.7-8.38,14.24c0,0-21-2.21-26.51,12.46,0,0-2.16,2,5.86,15l24.19,35.14h37.45c2.24-7.87,6.2-15,9.57-22.54A29,29,0,0,1,118.62,123.94Z"/><path class="cls-8" d="M92.7,156.47h1.67s.57-1.19,1.57-3.18l-.63.6A30.27,30.27,0,0,0,92.7,156.47Z"/><path class="cls-9" d="M91.11,159.21a7.79,7.79,0,0,1,1.59-2.74h-.87C91.57,157.38,91.32,158.29,91.11,159.21Z"/><path class="cls-10" d="M125.07,98.51s-15.1-.75-24.39-8.63a52,52,0,0,1-6.76-8.6l.21-1s6.53-5.07,8.54-10.3c3.38-6.17,5.15-14.94,1.85-27.13,0,0-4.7-18.69-22.52-18.9,0,0,20,25.84,9.85,51.82l-.07.06-3.5,7.06a42.06,42.06,0,0,0,14.11,14.18c4.47,2.72,9.42,4.59,13.88,7.33,0,0,7.92,11.46,0,21.81v0a28.9,28.9,0,0,0-5.06,7.68c-3.37,7.55-7.33,14.67-9.57,22.54h.87a31.77,31.77,0,0,1,2.61-2.58l.63-.6c3-6,9.86-19.17,16.83-28.88C122.57,124.41,139,104.37,125.07,98.51Z"/><path class="cls-9" d="M58.56,238.19l-7.87,32.74A9.86,9.86,0,0,1,38,278l-6.17-2.09A9.86,9.86,0,0,1,26,262.44L40,231.78a9.87,9.87,0,0,1,12.46-5.11h0A9.86,9.86,0,0,1,58.56,238.19Z"/><polygon class="cls-9" points="86.74 230.61 81.33 245.52 18.46 224.31 24.36 207.43 86.74 230.61"/><path class="cls-11" d="M231.43,85.23a14,14,0,1,1,14.11-13.69A13.81,13.81,0,0,1,231.43,85.23Zm.19-7.92a6.31,6.31,0,0,0,6-6.12,6,6,0,0,0-12.06.14A6.23,6.23,0,0,0,231.62,77.31Z"/><polygon class="cls-12" points="106.04 178.94 88.76 231.35 20.52 209.39 36.42 157.33 67.48 167.11 68.31 181.22 77.61 170.83 106.04 178.94"/><path class="cls-2" d="M252.73,128.85v-6.08c-4,.19-7.76-.62-11-4A156.23,156.23,0,0,0,228.5,106.3c-7.13-5.92-12.64-5.83-19.92-.3-.67.51-1.3,1.08-2,1.58-6.25,4.54-10.24,3.63-13.16-3.38-2.6-6.22-4.62-12.68-7.24-18.89a50.66,50.66,0,0,0-5.71-10.42c-5.79-7.87-14.8-8.62-22-2a47.38,47.38,0,0,0-4.26,4.68v54l35.43,4.37,10.64,7.17,5.55,9.63,25.73-5.47,21.16-.23,4.9-15.47Z"/><path class="cls-13" d="M252.37,38.28H145.18V174.52H261.47V38.28Zm0,8v64h0v8.41h0v10.51h0v8.38h0v29.17h-98.1V46.26Z"/><path class="cls-6" d="M154.22,128.21v38.51h98.15v-24.5a79.3,79.3,0,0,0-27,2.7c-4.74,1.4-9.59,3.25-14.47,2.49a14,14,0,0,1-9.14-5.65c-1.75-2.46-2.66-5.43-4.27-8-4.18-6.65-12.58-9.58-20.44-9.56S162.08,128.21,154.22,128.21Z"/><polygon class="cls-9" points="138.96 220.74 119.03 276.71 144.65 276.71 153.56 252.81 173.18 252.81 173.18 268.55 197.2 268.55 197.2 252.69 218.9 252.69 227.82 276.61 251.11 276.61 231.04 220.38 138.96 220.74"/><rect class="cls-4" x="51.77" y="153.67" width="63.97" height="20.35"/><path class="cls-7" d="M33.64,189.26c2.06,2,5.09,2.71,8,2.71,3.7,0,7.31-1,11-1.43s7.67-.16,10.62,2.07c2.58,1.94,4,5,5.93,7.6,3.71,4.8,9.45,7.51,15,10,4.32,2,8.7,4,13.39,4.75a7.92,7.92,0,0,1,3.91,1.27,5.64,5.64,0,0,1,1.51,2.36c1.2,3.08,1.44,6.48,2.75,9.52s4.27,5.82,7.54,5.28c2.64-.43,4.5-2.86,5.51-5.34a18.38,18.38,0,0,0-.57-15.05c-1.51-3-3.82-5.5-5.57-8.36A26.21,26.21,0,0,1,109,187.17c.36-2.38,1-4.9.09-7.11-1.08-2.52-4-3.78-6.69-4.13s-5.52,0-8.22-.52c-4.73-.88-8.73-4.2-13.46-5.08a6.09,6.09,0,0,0-3,.07c-3.69,1.24-4.89,5.73-8.27,7.47-1.1-3.87,1.92-8.55-.47-11.79a7.24,7.24,0,0,0-3.25-2.21c-8.5-3.44-18.73-2.16-26.33-7.29-1-.66-2.18-1.45-3.23-.91A3,3,0,0,0,35,157.19a121.39,121.39,0,0,0-8.72,25.62C27.22,178.56,33.31,188.93,33.64,189.26Z"/><path class="cls-14" d="M115.08,232.75c-6.11,4.52-.7-15.3-3.71-22.28a58.15,58.15,0,0,1-3.05-7.42,10.7,10.7,0,0,1,.47-7.82s3.91,11.27,7.24,13.69C116,208.92,127.42,223.63,115.08,232.75Z"/></svg>