<svg id="Layer_1" data-name="Layer 1" xmlns="http://www.w3.org/2000/svg" viewBox="0 0 452.81 178.46"><defs><style>.cls-1{fill:#434444;}.cls-2{fill:#606161;}.cls-3{fill:#42b1ae;}</style></defs><path class="cls-1" d="M168.29,31.38h10.42V99.11h38.58v9.16h-49Z"/><path class="cls-1" d="M253.05,31.38h11.78l27.9,76.89H281.32l-7.8-23H243.11l-8.33,23H224.11Zm17.12,45.38-11.67-34-12.41,34Z"/><path class="cls-1" d="M353,31.38v9.16H327.08v67.73H316.56V40.54H290.65V31.38Z"/><path class="cls-1" d="M426.81,42.37q7.65,10.2,7.64,26.12,0,17.22-8.74,28.63-10.26,13.41-29.26,13.4-17.74,0-27.9-11.72-9.06-11.31-9.06-28.58,0-15.6,7.75-26.7,9.94-14.24,29.42-14.24Q417,29.28,426.81,42.37Zm-9.19,49a42,42,0,0,0,6.15-22.71q0-13.56-7.09-21.84t-19.39-8.28q-11.94,0-19.47,8.2t-7.54,24.17q0,12.8,6.46,21.56t21,8.78Q411.47,101.26,417.62,91.38Z"/><path class="cls-1" d="M111.52,108.27H51.37V27.8h59.37v13H65.09V60.57h42.19V73H65.09v22.5h46.43ZM54.94,104.7h53V99.11H61.52V69.47h42.19V64.15H61.52V37.23h45.65V31.38H54.94Z"/><path class="cls-2" d="M163.65,147.36V132.29h1.89v13.42H171v1.65Z"/><path class="cls-2" d="M173.49,142.28v0a3.5,3.5,0,0,0,1,2.57,3.35,3.35,0,0,0,2.45,1,3.4,3.4,0,0,0,2.46-1c.1-.1.29-.32.56-.66l1.78.63a5.66,5.66,0,0,1-.92,1.18,5.49,5.49,0,0,1-7.73,0,5.2,5.2,0,0,1,0-7.45,5.49,5.49,0,0,1,7.73,0,5,5,0,0,1,1.37,3.68Zm.34-1.65h6.27a2.93,2.93,0,0,0-3.12-1.95A3,3,0,0,0,173.83,140.63Z"/><path class="cls-2" d="M194.29,147.36h-1.9v-1.68a3.67,3.67,0,0,1-3.41,1.93,5.25,5.25,0,0,1-3.85-1.58,5.2,5.2,0,0,1,0-7.45A5.25,5.25,0,0,1,189,137a3.69,3.69,0,0,1,3.41,1.91v-1.12h1.9Zm-1.9-4.29v-1.53a3.57,3.57,0,0,0-3.41-2.86,3.33,3.33,0,0,0-2.45,1,3.71,3.71,0,0,0,0,5.15,3.42,3.42,0,0,0,4.91,0A3.41,3.41,0,0,0,192.39,143.07Z"/><path class="cls-2" d="M200.81,139.21a3.25,3.25,0,0,0-2,1,3.15,3.15,0,0,0-.71,2.09v5H196.2v-9.57h1.89v1.36a2.6,2.6,0,0,1,1.8-1.56Z"/><path class="cls-2" d="M204.46,140.22v7.14h-1.89v-9.57h1.89a2.73,2.73,0,0,1,2-.52,3.94,3.94,0,0,1,2.92,1.11,3.74,3.74,0,0,1,1.13,2.71v6.27h-1.88v-6.19a2.17,2.17,0,0,0-.66-1.62,2.11,2.11,0,0,0-1.51-.64,2.07,2.07,0,0,0-1.48.61A2.47,2.47,0,0,0,204.46,140.22Z"/><path class="cls-2" d="M220.7,142.58a6.73,6.73,0,0,1-1.47-1,2.44,2.44,0,0,1,0-3.54,2.53,2.53,0,0,1,1.88-.76,2.46,2.46,0,0,1,1.83.7,2.17,2.17,0,0,1,.71,1.56v.29l-1.7.69a3.1,3.1,0,0,0-.36-1.39.64.64,0,0,0-.48-.21.72.72,0,0,0-.51.24.88.88,0,0,0-.24.64.9.9,0,0,0,.27.67,4.84,4.84,0,0,0,.83.6,8.05,8.05,0,0,1,1.73,1.18,2.89,2.89,0,0,1,.86,2.07,2.94,2.94,0,0,1-.89,2.13,3.13,3.13,0,0,1-5.36-2.25l1.88-.47a2.33,2.33,0,0,0,.39,1.6,1.18,1.18,0,0,0,.86.39,1.2,1.2,0,0,0,.86-.39,1.45,1.45,0,0,0,0-2A8,8,0,0,0,220.7,142.58Z"/><path class="cls-2" d="M231.16,137a5.2,5.2,0,0,1,3.85,1.58,5.23,5.23,0,0,1,0,7.45,5.48,5.48,0,0,1-7.7,0,5.18,5.18,0,0,1,0-7.45A5.24,5.24,0,0,1,231.16,137Zm-2.45,2.73a3.71,3.71,0,0,0,0,5.15,3.42,3.42,0,0,0,4.89,0,3.71,3.71,0,0,0,0-5.15,3.37,3.37,0,0,0-4.89,0Z"/><path class="cls-2" d="M240.43,139.48v7.88h-1.9v-9.57h1.19a3.39,3.39,0,0,1,1.92-.51,3.48,3.48,0,0,1,2.21.67,3.42,3.42,0,0,1,2.19-.67,3,3,0,0,1,2.26.92,2.93,2.93,0,0,1,.87,2v7.17h-1.9v-7.58q-.12-.87-1.23-.87a1.27,1.27,0,0,0-1.27.82v7.63h-1.89v-7.58h0q-.12-.87-1.23-.87A1.44,1.44,0,0,0,240.43,139.48Z"/><path class="cls-2" d="M252.86,142.28v0a3.49,3.49,0,0,0,1,2.57,3.42,3.42,0,0,0,4.91,0q.15-.15.57-.66l1.78.63a6,6,0,0,1-.92,1.18,5.49,5.49,0,0,1-7.73,0,5.18,5.18,0,0,1,0-7.45,5.23,5.23,0,0,1,3.84-1.58,5.31,5.31,0,0,1,3.89,1.6,5,5,0,0,1,1.37,3.68Zm.33-1.65h6.27a2.91,2.91,0,0,0-3.12-1.95A3,3,0,0,0,253.19,140.63Z"/><path class="cls-2" d="M264.26,137.79v-3.72h1.89v3.72h1.78v1.63h-1.78v7.94h-1.89v-7.94h-1.78v-1.63Z"/><path class="cls-2" d="M269.42,132.29h1.89v5.5a2.75,2.75,0,0,1,2-.52,3.94,3.94,0,0,1,2.92,1.11,3.74,3.74,0,0,1,1.13,2.71v6.27h-1.88v-6.19a2.17,2.17,0,0,0-.66-1.62,2.09,2.09,0,0,0-1.51-.64,2,2,0,0,0-1.47.61,2.34,2.34,0,0,0-.52.7v7.14h-1.89Z"/><path class="cls-2" d="M281.54,135.06a1.13,1.13,0,0,1,0,1.69,1.44,1.44,0,0,1-1.93,0,1.13,1.13,0,0,1,0-1.69,1.44,1.44,0,0,1,1.93,0Zm0,2.73v9.57h-1.88v-9.57Z"/><path class="cls-2" d="M285.85,140.22v7.14H284v-9.57h1.89a2.75,2.75,0,0,1,2-.52,3.94,3.94,0,0,1,2.92,1.11,3.74,3.74,0,0,1,1.13,2.71v6.27H290v-6.19a2.17,2.17,0,0,0-.66-1.62,2.1,2.1,0,0,0-3,0A2.47,2.47,0,0,0,285.85,140.22Z"/><path class="cls-2" d="M302.34,145.74a3.39,3.39,0,0,1-3.27,1.87,5.24,5.24,0,0,1-3.85-1.58,5.2,5.2,0,0,1,0-7.45,5.26,5.26,0,0,1,3.85-1.56,3.71,3.71,0,0,1,3.41,1.89v-1.12h1.9V145a4.9,4.9,0,0,1-1.52,3.61,5.49,5.49,0,0,1-7.72.05,12.14,12.14,0,0,1-.9-1.09l1.81-.66a4.51,4.51,0,0,0,.52.58,3.25,3.25,0,0,0,2.41,1Q301.95,148.51,302.34,145.74Zm.13-4.23a3.56,3.56,0,0,0-1-1.8,3.28,3.28,0,0,0-2.42-1,3.33,3.33,0,0,0-2.45,1,3.71,3.71,0,0,0,0,5.15,3.32,3.32,0,0,0,2.45,1,3.53,3.53,0,0,0,3.4-2.79Z"/><path class="cls-2" d="M313.72,140.22v7.14h-1.89v-9.57h1.89a2.75,2.75,0,0,1,2-.52,3.94,3.94,0,0,1,2.92,1.11,3.74,3.74,0,0,1,1.13,2.71v6.27h-1.88v-6.19a2.17,2.17,0,0,0-.66-1.62,2.1,2.1,0,0,0-3,0A2.47,2.47,0,0,0,313.72,140.22Z"/><path class="cls-2" d="M323.45,142.28v0a3.5,3.5,0,0,0,1,2.57,3.33,3.33,0,0,0,2.45,1,3.4,3.4,0,0,0,2.46-1c.09-.1.28-.32.56-.66l1.78.63a5.66,5.66,0,0,1-.92,1.18,5.49,5.49,0,0,1-7.73,0,5.18,5.18,0,0,1,0-7.45,5.24,5.24,0,0,1,3.85-1.58,5.3,5.3,0,0,1,3.88,1.6,5,5,0,0,1,1.37,3.68Zm.34-1.65h6.27a2.93,2.93,0,0,0-3.12-1.95A3,3,0,0,0,323.79,140.63Z"/><path class="cls-2" d="M345.15,137.79l-3.26,9.57h-1.33l-1.62-4.53-1.61,4.53H336l-3.24-9.57h2l1.92,6,1.61-4.46h1.28l1.6,4.46,1.91-6Z"/><path class="cls-2" d="M353.28,142.28v0a3.49,3.49,0,0,0,1,2.57,3.42,3.42,0,0,0,4.91,0q.15-.15.57-.66l1.78.63a6,6,0,0,1-.92,1.18,5.49,5.49,0,0,1-7.73,0,5.18,5.18,0,0,1,0-7.45,5.23,5.23,0,0,1,3.84-1.58,5.31,5.31,0,0,1,3.89,1.6,5,5,0,0,1,1.37,3.68Zm.33-1.65h6.27a2.91,2.91,0,0,0-3.12-1.95A3,3,0,0,0,353.61,140.63Z"/><path class="cls-2" d="M372.26,137.79,368,147.36H366.8l-4.23-9.57h2.08l2.75,6.38,2.78-6.38Z"/><path class="cls-2" d="M374.92,142.28v0a3.49,3.49,0,0,0,1,2.57,3.42,3.42,0,0,0,4.91,0q.15-.15.57-.66l1.78.63a6.42,6.42,0,0,1-.92,1.18,5.5,5.5,0,0,1-7.74,0,5.2,5.2,0,0,1,0-7.45A5.25,5.25,0,0,1,378.4,137a5.32,5.32,0,0,1,3.89,1.6,5,5,0,0,1,1.37,3.68Zm.33-1.65h6.27a2.93,2.93,0,0,0-3.12-1.95A3,3,0,0,0,375.25,140.63Z"/><path class="cls-2" d="M389.63,139.21a3.2,3.2,0,0,0-2,1,3.1,3.1,0,0,0-.71,2.09v5H385v-9.57h1.9v1.36a2.6,2.6,0,0,1,1.8-1.56Z"/><path class="cls-2" d="M394.75,150.68h-2l2.49-5.36-3.5-7.53h2l2.49,5.29,2.49-5.29h2Z"/><path class="cls-2" d="M412.6,147.36h-1.9v-1.68a3.68,3.68,0,0,1-3.41,1.93,5.24,5.24,0,0,1-3.85-1.58,5.18,5.18,0,0,1,0-7.45,5.24,5.24,0,0,1,3.85-1.58,3.7,3.7,0,0,1,3.41,1.91v-6.62h1.9Zm-1.9-4.29v-1.53a3.57,3.57,0,0,0-3.41-2.86,3.33,3.33,0,0,0-2.45,1,3.71,3.71,0,0,0,0,5.15,3.35,3.35,0,0,0,2.45,1,3.53,3.53,0,0,0,3.41-2.84Z"/><path class="cls-2" d="M425.2,147.36h-1.89v-1.68a3.69,3.69,0,0,1-3.41,1.93,5.24,5.24,0,0,1-3.85-1.58,5.18,5.18,0,0,1,0-7.45A5.24,5.24,0,0,1,419.9,137a3.71,3.71,0,0,1,3.41,1.91v-1.12h1.89Zm-1.89-4.29v-1.53a3.57,3.57,0,0,0-3.41-2.86,3.32,3.32,0,0,0-2.45,1,3.71,3.71,0,0,0,0,5.15,3.33,3.33,0,0,0,2.45,1,3.53,3.53,0,0,0,3.41-2.84Z"/><path class="cls-2" d="M429.52,150.68h-2l2.49-5.36-3.51-7.53h2l2.5,5.29,2.49-5.29h2Z"/><path class="cls-2" d="M438.74,145.43a1.13,1.13,0,0,1,.39.84,1.14,1.14,0,0,1-.39.84,1.29,1.29,0,0,1-.95.37,1.33,1.33,0,0,1-1-.37,1.17,1.17,0,0,1-.38-.84,1.15,1.15,0,0,1,.38-.84,1.33,1.33,0,0,1,1-.37A1.29,1.29,0,0,1,438.74,145.43Zm0-13.14v11.56h-1.9V132.29Z"/><path class="cls-3" d="M151.16,165.4H40.22a21.87,21.87,0,0,1,0-43.74h42c2.41,0,4.82,0,7.23.07,20.15.25,39.15.5,51.55-17.67,2.83-4.15,2.76-8,2.66-13.32,0-1,0-2,0-3.08V28.25a8.62,8.62,0,0,0-8.61-8.61H37.91A15.77,15.77,0,0,0,22.16,35.39v82.49a3.58,3.58,0,0,1-7.15,0V35.39A22.92,22.92,0,0,1,37.91,12.5h97.14A15.76,15.76,0,0,1,150.8,28.25V87.66c0,1,0,2,0,3,.11,5.89.21,11.45-3.9,17.48-14.57,21.34-36.42,21.06-57.55,20.78-2.38,0-4.76-.06-7.14-.06h-42a14.72,14.72,0,1,0,0,29.44H151.16a3.58,3.58,0,1,1,0,7.15Z"/><path class="cls-3" d="M152.26,146.72H36.31a3.57,3.57,0,0,1,0-7.14h116a3.57,3.57,0,1,1,0,7.14Z"/></svg>