<svg id="Layer_1" data-name="Layer 1" xmlns="http://www.w3.org/2000/svg" viewBox="0 0 300 300"><defs><style>.cls-1{fill:#fff3e3;}.cls-2{fill:#cacce7;}.cls-3{fill:#828bc5;}.cls-4{fill:#4f5daa;}.cls-5{fill:#41c2cc;}.cls-6{fill:#2cb997;}.cls-7{fill:#b9e1d6;}.cls-8{fill:#b8e2e6;}</style></defs><rect class="cls-1" x="19.57" y="73.5" width="241.58" height="175.34"/><path class="cls-2" d="M35.35,241.65s-3.43,17.07,27.88,14.1H187.71V232.54H53.41S41.45,227.16,35.35,241.65Z"/><rect class="cls-3" x="50.29" y="41.69" width="140.58" height="190.85"/><path class="cls-4" d="M122.39,158.69c2.45,3.44,3.12,7,1.1,10.7s-5.57,5.06-9.74,5c-3.49-.08-7,0-10.66,0V143.21c4.57,0,9.08-.43,13.48.09C123.93,144.18,127.11,152.51,122.39,158.69Zm-13.12-3.21c2.31,0,4.45.36,6.37-.13a4.3,4.3,0,0,0,2.65-3c.09-.86-1.47-2.53-2.54-2.76-2-.45-4.23-.13-6.48-.13Zm.1,6.43v6c2.18,0,4.23.35,6.08-.12a4.54,4.54,0,0,0,2.88-2.82c.35-1.7-.92-3-2.89-3.09S111.51,161.91,109.37,161.91Z"/><path class="cls-4" d="M94.63,174.13H88.4v-9H79.27v8.93H73.1a7.07,7.07,0,0,1-.26-1.23c0-6.12-.11-12.24,0-18.35.11-5.75,3.81-10.24,8.82-11.07a10.77,10.77,0,0,1,12.17,6.71,8.53,8.53,0,0,1,.74,2.84C94.66,160,94.63,167,94.63,174.13Zm-6.29-15.48c-.13-3.27,1-6.54-2.32-8.55a4.15,4.15,0,0,0-5,.36c-2.86,2.25-1.68,5.29-1.81,8.19Z"/><path class="cls-4" d="M72.89,210.63V179.89c4.15,0,8.22-.43,12.16.11,5.1.7,9.07,5.64,9.36,10.82a77.9,77.9,0,0,1,0,8.37,12.12,12.12,0,0,1-11.8,11.43C79.49,210.69,76.34,210.63,72.89,210.63Zm6.35-6.21c6.64.42,9.16-1.93,9.16-8.16v-3c0-5.67-3.5-8.4-9.16-7.18Z"/><path class="cls-4" d="M149.17,162h5.92c1.08,6.62-2.39,11.7-8.24,12.26-8.36.79-13.24-2.92-13.31-10.16,0-3.77-.08-7.55,0-11.33.15-6.74,5.39-10.59,13-9.65,6.3.77,9.8,5.77,8.47,12.27h-5.64a7.5,7.5,0,0,1-.21-1c-.16-4.53-2.91-6.46-7.16-4.69a4.45,4.45,0,0,0-2,3.31c-.26,3.76-.13,7.55-.08,11.32,0,3,1,3.75,4.58,3.75,3.44,0,4.54-.88,4.67-3.75C149.19,163.6,149.17,162.9,149.17,162Z"/><path class="cls-5" d="M150.48,85.67v7.4H88.58v-7.4Z"/><path class="cls-5" d="M134.9,108.69H104.09v-7.38H134.9Z"/><polygon class="cls-4" points="124.68 185.93 124.68 179.6 109.37 179.6 103.09 179.6 103.09 185.93 103.09 191.97 103.09 198.29 103.09 204.5 103.09 210.65 103.09 210.82 124.68 210.82 124.68 204.5 109.37 204.5 109.37 198.29 118.39 198.29 118.39 191.97 109.37 191.97 109.37 185.93 124.68 185.93"/><polygon class="cls-4" points="155.2 185.93 155.2 179.6 139.88 179.6 133.61 179.6 133.61 185.93 133.61 191.97 133.61 198.29 133.61 210.65 139.88 210.65 139.88 198.29 148.91 198.29 148.91 191.97 139.88 191.97 139.88 185.93 155.2 185.93"/><path class="cls-6" d="M178.62,138H266a14.37,14.37,0,0,1,14.37,14.37v73.47A14.37,14.37,0,0,1,266,240.23H227.32l-25.63,15.52V238.23H178.47a14.38,14.38,0,0,1-14.37-14.4l.15-71.47A14.37,14.37,0,0,1,178.62,138Z"/><path class="cls-7" d="M185.05,192.82V184.1h51.09v8.72Z"/><path class="cls-7" d="M217.82,174v-8.56h46.43V174Z"/><path class="cls-7" d="M185,211.59v-8.74h32.38v8.74Z"/><path class="cls-7" d="M264.35,184.18v8.61h-18.3v-8.61Z"/><path class="cls-7" d="M180.4,169.43c-.09-1-.22-1.78-.23-2.56,0-3.51,0-7,0-10.91h9.22v13.47Z"/><path class="cls-7" d="M198.89,155.8h9.29v13.45a4.06,4.06,0,0,1-1.13.47c-8.15.63-8.15.62-8.16-7.53Z"/><path class="cls-7" d="M236.61,221V207.62h9V221Z"/><path class="cls-7" d="M255.48,207.48h8.84V221h-8.84Z"/><path class="cls-2" d="M50.29,41.69S35.35,40.35,35.35,64.05v177.6s8.26-10.36,14.94-9.11"/><rect class="cls-5" x="67.63" y="54.23" width="101.14" height="21.41" rx="7.9"/><rect class="cls-8" x="74.56" y="74.94" width="88.18" height="50.38"/><rect class="cls-5" x="88.58" y="85.67" width="61.9" height="8.35"/><rect class="cls-5" x="104.09" y="100.56" width="30.81" height="8.35"/></svg>