<svg id="Layer_1" data-name="Layer 1" xmlns="http://www.w3.org/2000/svg" viewBox="0 0 300 300"><defs><style>.cls-1{fill:#fff3e3;}.cls-2{fill:#cacce7;}.cls-3{fill:#b9e1d6;}.cls-4{fill:#41c2cc;}.cls-5{fill:#faae61;}.cls-6{fill:none;}.cls-7{fill:#616fb4;}.cls-8{fill:#b8e2e6;}.cls-9{fill:#e2f3f5;}.cls-10{fill:#8cd0bd;}.cls-11{fill:#00b589;}</style></defs><rect class="cls-1" x="20.48" y="58.5" width="259.84" height="188.59"/><rect class="cls-2" x="30.65" y="40.33" width="113.67" height="84.15"/><rect class="cls-3" x="193.13" y="40.33" width="69.83" height="84.15"/><rect class="cls-4" x="19.68" y="132.7" width="106.08" height="127.46" rx="6.48"/><path class="cls-5" d="M144.32,211.59v-7.52h22.35c1.25,4.08,2.54,8.26,4.13,13.44,4.63-17.37,9-33.8,13.41-50.33h73.53v7.51H254c-20.1,0-40.2.06-60.29-.07-2.7,0-3.66.85-4.31,3.37-4,15.33-8.15,30.61-12.13,45.94-.88,3.37-2.66,5.49-6.16,5.79-3.07.26-5.41-1.83-6.61-5.7-1-3.13-2.05-6.25-2.78-9.44-.52-2.28-1.5-3.16-3.92-3.05C153.37,211.74,149,211.59,144.32,211.59Z"/><path class="cls-5" d="M190.32,230.06v-7.72h9.32c2.61,0,5.22,0,7.83,0,3.63-.1,6.27-2.56,6.3-5.77a6,6,0,0,0-6.23-5.85c-4.63-.07-9.28,0-14.45,0,1.18-4.88,2.22-9.44,3.39-14,.81-3.16.87-7.48,3-9.09s6.29-.57,9.56-.61c4,0,8.11,0,12.33,0v8H205.07c-.65,2.6-1.24,5-1.87,7.51,2.29.16,4.33.17,6.33.48,7.18,1.12,11.93,6.5,12,13.43s-4.53,12.85-11.7,13.56C203.43,230.56,197,230.06,190.32,230.06Z"/><path class="cls-5" d="M229.06,189l6.82-3.78c2.8,5,5.45,9.68,8.3,14.76l8.31-14.79,6.82,3.79c-3.18,5.73-6.16,11.29-9.33,16.72a4.2,4.2,0,0,0,0,4.9c3.2,5.44,6.16,11,9.3,16.72l-6.76,3.81c-2.72-4.84-5.37-9.52-8.34-14.79l-8.3,14.77-6.81-3.77c3-5.36,5.72-10.64,8.79-15.74,1.46-2.41,1.6-4.25.07-6.74C234.84,199.84,232.16,194.59,229.06,189Z"/><path class="cls-5" d="M152.21,167.21c2.85-.46,6.72.64,7.27-3.64a4.9,4.9,0,0,0-2.22-4c-3.79-1.85-4.78,2.18-7,4.07l-5.87-4.29c4-7.4,10.45-10,16.68-6.91s8.1,9.62,4.75,17.17a3.58,3.58,0,0,0,.54.77c4.5,3.92,6.66,8.69,4.42,14.52-2.31,6-7.23,8.84-13.42,9.37-7.1.61-12.45-2.5-16.56-8.72l6-5c2.6,4.21,5.89,6.62,10.84,5.73,3.48-.62,6-2.8,6-5.49,0-3.47-2.4-4.93-5.35-5.6-1.86-.43-3.8-.5-6-.77Z"/><rect class="cls-6" x="25.05" y="139.64" width="96.05" height="116.65"/><rect class="cls-6" x="25.05" y="139.64" width="96.05" height="116.65"/><rect class="cls-7" x="98.06" y="58.5" width="36.44" height="6.97"/><rect class="cls-7" x="98.06" y="100.98" width="36.44" height="6.97" transform="translate(114.22 -51.84) rotate(47.31)"/><rect class="cls-7" x="98.06" y="100.98" width="36.44" height="6.97" transform="translate(271.91 89.83) rotate(132.69)"/><rect class="cls-7" x="37.84" y="58.5" width="36.44" height="6.97"/><rect class="cls-7" x="37.84" y="100.98" width="36.44" height="6.97"/><rect class="cls-7" x="51.89" y="88.64" width="8.03" height="6.97"/><rect class="cls-7" x="51.89" y="113.32" width="8.03" height="6.97"/><rect class="cls-7" x="37.84" y="58.5" width="36.44" height="6.97" transform="translate(-5.93 118.04) rotate(-90)"/><path class="cls-8" d="M112.49,248.07H100.55v-7.95h11.94Z"/><path class="cls-8" d="M112.5,197.7H100.6v-7.78h11.9Z"/><path class="cls-8" d="M112.56,214.53h-12v-8h12Z"/><path class="cls-8" d="M112.62,223.4v7.75H100.54V223.4Z"/><path class="cls-8" d="M33.63,240h7.64v8H33.63Z"/><path class="cls-8" d="M58.07,248H50.31v-8h7.76Z"/><path class="cls-8" d="M74.81,248H67.08v-8h7.73Z"/><path class="cls-8" d="M83.89,240H91.5v8H83.89Z"/><path class="cls-8" d="M41.39,189.93v7.69H33.61v-7.69Z"/><path class="cls-8" d="M50.34,189.82H58.1v7.81H50.34Z"/><path class="cls-8" d="M91.52,197.68H83.8v-7.81h7.72Z"/><path class="cls-8" d="M41.25,214.51H33.58v-7.88h7.67Z"/><path class="cls-8" d="M50.24,214.41v-7.74h7.85v7.74Z"/><path class="cls-8" d="M91.69,206.6v7.76H83.78V206.6Z"/><path class="cls-8" d="M33.52,231.1v-7.79h7.79v7.79Z"/><path class="cls-8" d="M58.14,223.41v7.73H50.36v-7.73Z"/><path class="cls-8" d="M67.07,223.25h7.68v7.93H67.07Z"/><path class="cls-8" d="M91.57,231.23H83.89v-7.91h7.68Z"/><path class="cls-8" d="M74.76,197.67h-7.7v-7.79h7.7Z"/><path class="cls-8" d="M67,206.49h7.74v8H67Z"/><path class="cls-8" d="M111.68,177.05H33.86V147.16h77.82Zm-70.54-7.28H104.4V154.44H41.14Z"/><rect class="cls-9" x="41.14" y="154.17" width="63.26" height="16.12"/><rect class="cls-10" x="200.74" y="47.86" width="54.61" height="22.1"/><rect class="cls-10" x="200.74" y="76.22" width="54.61" height="41.05"/><path class="cls-11" d="M204.5,89.85V82.59h47v7.26Z"/><path class="cls-11" d="M204.5,63.63V56.38h47v7.25Z"/><path class="cls-11" d="M251.59,101.6H228.52V93.93h23.07Z"/><path class="cls-11" d="M220.07,94v7.53H204.58V94Z"/><path class="cls-11" d="M251.59,113.25H228.52v-7.66h23.07Z"/><path class="cls-11" d="M220.07,105.65v7.53H204.58v-7.53Z"/></svg>