<svg id="Layer_1" data-name="Layer 1" xmlns="http://www.w3.org/2000/svg" viewBox="0 0 300 300"><defs><style>.cls-1{fill:#fff3e3;}.cls-2{fill:#41c2cc;}.cls-3{fill:#2cb997;}.cls-4{fill:#616fb4;}.cls-5{fill:#faae61;}.cls-6{fill:none;}.cls-7{fill:#b8e2e6;}</style></defs><rect class="cls-1" x="24.91" y="45.71" width="251.94" height="207.34"/><circle class="cls-2" cx="128.09" cy="116.03" r="72.95"/><path class="cls-3" d="M231.36,227.56c-10.92-16.36-22.65-31.51-27.5-50.22-4.51-17.42,10.63-35,28.61-34a28.2,28.2,0,0,1,25.73,37.06c-4.28,13.29-11.92,24.86-19.45,36.44C236.51,220.28,234.1,223.59,231.36,227.56Zm.07-14.26c7.67-12.15,15.57-23.51,19.48-36.91a20.14,20.14,0,0,0-24-24.41c-10.76,2.61-18.13,13.7-15.17,24.1C215.6,189.62,223.64,201.08,231.43,213.3Z"/><path class="cls-4" d="M215.25,82V74.51h40.33V82Z"/><path class="cls-4" d="M255.63,98.42H219.56V90.73h36.07Z"/><path class="cls-4" d="M239.35,114.65h-19.8V107.1h19.8Z"/><path class="cls-3" d="M243.52,171.55a12,12,0,0,1-11.79,12.26,12.13,12.13,0,1,1,11.79-12.26Zm-13,4.67,1.68,0c1.11-1.51,2.86-2.89,3.15-4.54.42-2.33-1.37-4-3.79-4s-4.26,1.51-3.94,3.87C227.81,173.21,229.46,174.67,230.48,176.22Z"/><rect class="cls-2" x="22.7" y="232.48" width="254.15" height="24.5"/><rect class="cls-2" x="85.18" y="256.98" width="59.51" height="18.02"/><rect class="cls-2" x="100.38" y="218.15" width="26.59" height="26.59"/><rect class="cls-2" x="24.3" y="179.97" width="7.99" height="58.19"/><rect class="cls-2" x="195.01" y="54.19" width="80.99" height="9.06"/><rect class="cls-2" x="267.83" y="53.64" width="9.02" height="184.51"/><path class="cls-5" d="M93.06,48.8l-6.94,4.28L82,46.32S47.26,63.79,44.85,116c0,0-1.41,73.91,77.05,85.34,0,0,24.31,3.23,48.27-9.61L166.11,185l7.06-4.05,9.51,15.55s8,9.37-2.53,17.33c0,0-48.49,28.53-101.52-.56,0,0-53.1-22.21-58.19-89.55,0,0-4.25-38,19.89-70.11,0,0,24.36-33.75,37.62-27a16.13,16.13,0,0,1,7.71,10Z"/><path class="cls-6" d="M66,79.08a71.8,71.8,0,0,0-8.13,19.85c2.58-.54,5.54-1.24,8.81-2.12A118.31,118.31,0,0,1,66,79.08Z"/><path class="cls-6" d="M69,110.05c-.3-1.29-.57-2.57-.82-3.84-4.65,1.21-8.72,2.05-12,2.63A72,72,0,0,0,63.31,148L79.5,137.84A111.92,111.92,0,0,1,69,110.05Z"/><path class="cls-6" d="M109.21,173.81a126,126,0,0,1-24.95-27.95L68,156a72.67,72.67,0,0,0,32.19,26.62Q104.69,178,109.21,173.81Z"/><path class="cls-6" d="M191.56,150.5a71.59,71.59,0,0,0,6.78-17.69c-2.21.59-4.77,1.33-7.66,2.28C191.2,140,191.51,145.11,191.56,150.5Z"/><path class="cls-6" d="M134.57,56.32A100.82,100.82,0,0,0,112.3,45.54a71.91,71.91,0,0,0-16.7,6L111,77A120,120,0,0,0,134.57,56.32Z"/><path class="cls-6" d="M110,186a72.5,72.5,0,0,0,18.09,2.29c.51,0,1,0,1.51,0-4.65-2.77-8.95-5.64-12.95-8.59Q113.34,182.69,110,186Z"/><path class="cls-6" d="M181.71,138.32a193.43,193.43,0,0,0-26,12.55l14.42,23.83a73.12,73.12,0,0,0,11.65-10.43A167.25,167.25,0,0,0,181.71,138.32Z"/><path class="cls-6" d="M123.78,173.38a166,166,0,0,0,21.48,12.81,71.51,71.51,0,0,0,17-6.54l-14.5-23.94A222.3,222.3,0,0,0,123.78,173.38Z"/><path class="cls-6" d="M75.81,94a151.11,151.11,0,0,0,27.26-12.18L87.56,56.25A73.34,73.34,0,0,0,77,65.05,105.11,105.11,0,0,0,75.81,94Z"/><path class="cls-6" d="M143,45.34a70.92,70.92,0,0,0-11.18-1.46c2.74,1.47,5.63,3.17,8.62,5.12C141.3,47.81,142.16,46.59,143,45.34Z"/><path class="cls-6" d="M108,90a158.44,158.44,0,0,1-30.85,13.58c.29,1.56.63,3.15,1,4.75A104.6,104.6,0,0,0,87.33,133l33.86-21.15Z"/><path class="cls-6" d="M164,85.06a99.12,99.12,0,0,0-15-17.57c-2.24-2.08-4.5-4-6.74-5.72a127.89,127.89,0,0,1-26.34,23.32l13.18,21.77Z"/><path class="cls-6" d="M92,141a114.81,114.81,0,0,0,24.1,26.58,233.32,233.32,0,0,1,26.74-20L126,119.78Z"/><path class="cls-6" d="M155.34,60.66a106.47,106.47,0,0,1,16.5,19.51l13.34-8.33A72.53,72.53,0,0,0,152.4,48c-1.41,2.23-2.86,4.38-4.37,6.44C150.46,56.34,152.91,58.4,155.34,60.66Z"/><path class="cls-6" d="M150.84,142.78a197.23,197.23,0,0,1,29.7-14.14A110.68,110.68,0,0,0,168.83,93l-34.9,21.8Z"/><path class="cls-6" d="M189.37,125.61c4.28-1.33,7.88-2.25,10.64-2.87.2-2.21.32-4.45.32-6.71a71.8,71.8,0,0,0-9.92-36.47l-13.78,8.61A121.42,121.42,0,0,1,189.37,125.61Z"/><path class="cls-7" d="M129.1,106.86,115.92,85.09Q112,87.75,108,90l13.18,21.77Z"/><path class="cls-7" d="M111,77,95.6,51.53a74.19,74.19,0,0,0-8,4.72l15.51,25.61C105.71,80.35,108.36,78.71,111,77Z"/><path class="cls-7" d="M126,119.78l16.86,27.85q4.06-2.58,8-4.85l-16.91-27.94Z"/><path class="cls-7" d="M147.77,155.71l14.5,23.94a73,73,0,0,0,7.89-5l-14.42-23.83Q151.84,153.12,147.77,155.71Z"/><path class="cls-7" d="M92,141l-7.78,4.86a126,126,0,0,0,24.95,27.95c2.32-2.15,4.63-4.25,6.93-6.23A114.81,114.81,0,0,1,92,141Z"/><path class="cls-7" d="M116.65,179.64c4,3,8.3,5.82,12.95,8.59a72.05,72.05,0,0,0,15.66-2,166,166,0,0,1-21.48-12.81Q120.24,176.38,116.65,179.64Z"/><path class="cls-7" d="M66.72,96.81C69.54,96,72.6,95.12,75.81,94a105.11,105.11,0,0,1,1.14-29A72.55,72.55,0,0,0,66,79.08,118.31,118.31,0,0,0,66.72,96.81Z"/><polygon class="cls-7" points="77.52 62.44 73.05 61.22 73.02 61.21 77.52 62.44"/><path class="cls-7" d="M78.16,108.36c-.37-1.6-.71-3.19-1-4.75-3.18,1-6.19,1.88-9,2.6.25,1.27.52,2.55.82,3.84A111.92,111.92,0,0,0,79.5,137.84L87.33,133A104.6,104.6,0,0,1,78.16,108.36Z"/><path class="cls-7" d="M149,67.49a99.12,99.12,0,0,1,15,17.57l7.83-4.89a106.47,106.47,0,0,0-16.5-19.51c-2.43-2.26-4.88-4.32-7.31-6.22q-2.79,3.84-5.77,7.33C144.5,63.51,146.76,65.41,149,67.49Z"/><path class="cls-7" d="M168.83,93a110.68,110.68,0,0,1,11.71,35.6c3.2-1.2,6.14-2.19,8.83-3a121.42,121.42,0,0,0-12.74-37.44Z"/><path class="cls-7" d="M140.43,49c-3-2-5.88-3.65-8.62-5.12-1.23-.06-2.47-.1-3.72-.1a72,72,0,0,0-15.79,1.76,100.82,100.82,0,0,1,22.27,10.78Q137.6,52.84,140.43,49Z"/><path class="cls-7" d="M181.71,138.32a167.25,167.25,0,0,1,.1,26,72.94,72.94,0,0,0,9.75-13.77c-.05-5.39-.36-10.51-.88-15.41C188,136,185,137.05,181.71,138.32Z"/><path class="cls-7" d="M66.72,96.81c-3.27.88-6.23,1.58-8.81,2.12a70.48,70.48,0,0,0-1.7,9.91c3.24-.58,7.31-1.42,12-2.63C67.54,103,67.06,99.83,66.72,96.81Z"/><path class="cls-7" d="M148,54.44c1.51-2.06,3-4.21,4.37-6.44A72.4,72.4,0,0,0,143,45.34c-.83,1.25-1.69,2.47-2.56,3.66Q144.16,51.45,148,54.44Z"/><path class="cls-7" d="M142.26,61.77c-2.6-2-5.19-3.84-7.69-5.45A120,120,0,0,1,111,77l4.93,8.14A127.89,127.89,0,0,0,142.26,61.77Z"/><path class="cls-7" d="M108,90l-4.94-8.17A151.11,151.11,0,0,1,75.81,94c.29,3.06.73,6.26,1.35,9.57A158.44,158.44,0,0,0,108,90Z"/><path class="cls-7" d="M115.92,85.09,111,77c-2.63,1.76-5.28,3.4-7.92,4.91L108,90Q112,87.74,115.92,85.09Z"/><path class="cls-7" d="M75.81,94c-3.21,1.08-6.27,2-9.09,2.77.34,3,.82,6.16,1.45,9.4,2.8-.72,5.81-1.59,9-2.6C76.54,100.3,76.1,97.1,75.81,94Z"/><path class="cls-7" d="M148,54.44q-3.85-3-7.6-5.44-2.82,3.84-5.86,7.32c2.5,1.61,5.09,3.42,7.69,5.45Q145.25,58.27,148,54.44Z"/><path class="cls-7" d="M176.63,88.17l13.78-8.61a72.62,72.62,0,0,0-5.23-7.72l-13.34,8.33C173.49,82.68,175.1,85.34,176.63,88.17Z"/><path class="cls-7" d="M121.19,111.8,87.33,133Q89.49,137.07,92,141l34-21.22Z"/><path class="cls-7" d="M79.5,137.84,63.31,148A71.78,71.78,0,0,0,68,156l16.29-10.17Q81.64,141.82,79.5,137.84Z"/><path class="cls-7" d="M129.1,106.86l4.83,8L168.83,93c-1.48-2.74-3.09-5.41-4.82-8Z"/><polygon class="cls-7" points="126.02 119.78 133.93 114.84 129.1 106.86 121.19 111.8 126.02 119.78"/><path class="cls-7" d="M87.33,133l-7.83,4.89q2.15,4,4.76,8L92,141Q89.49,137.07,87.33,133Z"/><path class="cls-7" d="M168.83,93l7.8-4.87c-1.53-2.83-3.14-5.49-4.79-8L164,85.06C165.74,87.63,167.35,90.3,168.83,93Z"/><polygon class="cls-7" points="207.36 130.84 207.36 130.84 207.36 130.84 207.36 130.84"/><path class="cls-7" d="M150.84,142.78l4.9,8.09a193.43,193.43,0,0,1,26-12.55q-.42-4.95-1.17-9.68A197.23,197.23,0,0,0,150.84,142.78Z"/><path class="cls-7" d="M189.37,125.61c.52,3.06,1,6.21,1.31,9.48,2.89-1,5.45-1.69,7.66-2.28A72.7,72.7,0,0,0,200,122.74C197.25,123.36,193.65,124.28,189.37,125.61Z"/><path class="cls-7" d="M109.21,173.81q-4.51,4.2-9,8.84A73,73,0,0,0,110,186q3.33-3.28,6.65-6.34Q112.74,176.77,109.21,173.81Z"/><path class="cls-7" d="M116.14,167.58q3.66,3,7.64,5.8a222.3,222.3,0,0,1,24-17.67l-4.89-8.08A233.32,233.32,0,0,0,116.14,167.58Z"/><path class="cls-7" d="M142.88,147.63l4.89,8.08q4.06-2.6,8-4.84l-4.9-8.09Q146.94,145,142.88,147.63Z"/><path class="cls-7" d="M109.21,173.81q3.53,3,7.44,5.83,3.59-3.27,7.13-6.26-4-2.82-7.64-5.8C113.84,169.56,111.53,171.66,109.21,173.81Z"/><path class="cls-7" d="M181.71,138.32c3.24-1.27,6.25-2.34,9-3.23-.34-3.27-.79-6.42-1.31-9.48-2.69.84-5.63,1.83-8.83,3Q181.29,133.37,181.71,138.32Z"/><path class="cls-7" d="M55.85,116a71.08,71.08,0,0,1,.36-7.19l-1.44.25c-.21,2.28-.34,4.6-.34,6.94a73.15,73.15,0,0,0,7.68,32.67l1.2-.75A71.73,71.73,0,0,1,55.85,116Z"/><path class="cls-7" d="M87.56,56.25,86.83,55a74.58,74.58,0,0,0-9.35,7.55c-.08.32-.28,1.16-.53,2.46A73.34,73.34,0,0,1,87.56,56.25Z"/><path class="cls-7" d="M198.34,132.81a71.59,71.59,0,0,1-6.78,17.69c0,.94,0,1.9,0,2.86a72.88,72.88,0,0,0,8.34-21Z"/><path class="cls-7" d="M66,79.08c0-1,.08-2,.14-2.89a73.17,73.17,0,0,0-9.79,23.06l1.52-.32A71.8,71.8,0,0,1,66,79.08Z"/><path class="cls-7" d="M200.33,116c0,2.26-.12,4.5-.32,6.71l1.44-.31c.18-2.11.29-4.24.29-6.4a73.18,73.18,0,0,0-10.13-37.22l-1.2.75A71.8,71.8,0,0,1,200.33,116Z"/><path class="cls-7" d="M185.18,71.84l1.2-.75a73.88,73.88,0,0,0-33.2-24.31L152.4,48A72.53,72.53,0,0,1,185.18,71.84Z"/><path class="cls-7" d="M112.3,45.54c-1.2-.39-2.11-.66-2.69-.82a73.25,73.25,0,0,0-14.74,5.6l.73,1.21A71.91,71.91,0,0,1,112.3,45.54Z"/><path class="cls-7" d="M128.09,188.27A72.5,72.5,0,0,1,110,186c-.38.38-.77.75-1.15,1.14a73.57,73.57,0,0,0,19.24,2.56c1.29,0,2.56,0,3.84-.1l-2.33-1.35C129.1,188.24,128.6,188.27,128.09,188.27Z"/><path class="cls-7" d="M145.26,186.19l1.94,1a72.86,72.86,0,0,0,15.8-6.29l-.73-1.21A71.51,71.51,0,0,1,145.26,186.19Z"/><path class="cls-7" d="M170.16,174.7l.74,1.21a74.59,74.59,0,0,0,10.75-9.4c.06-.75.1-1.49.16-2.24A73.12,73.12,0,0,1,170.16,174.7Z"/><path class="cls-7" d="M68,156l-1.2.75a74.1,74.1,0,0,0,32.34,26.95l1-1.08A72.67,72.67,0,0,1,68,156Z"/><path class="cls-7" d="M143,45.34c.28-.42.57-.83.84-1.26A73.65,73.65,0,0,0,129,42.39c.93.47,1.89,1,2.86,1.49A70.92,70.92,0,0,1,143,45.34Z"/><path class="cls-7" d="M95.6,51.53l-.73-1.21a74.19,74.19,0,0,0-8,4.72l.73,1.21A74.19,74.19,0,0,1,95.6,51.53Z"/><path class="cls-7" d="M162.27,179.65l.73,1.21a74.14,74.14,0,0,0,7.9-5l-.74-1.21A73,73,0,0,1,162.27,179.65Z"/><path class="cls-7" d="M129.6,188.23l2.33,1.35a73.29,73.29,0,0,0,15.27-2.43l-1.94-1A72.05,72.05,0,0,1,129.6,188.23Z"/><path class="cls-7" d="M77,65.05c.25-1.3.45-2.14.53-2.46a74.46,74.46,0,0,0-11.3,13.6c-.06.94-.1,1.9-.14,2.89A72.55,72.55,0,0,1,77,65.05Z"/><path class="cls-7" d="M128.09,43.78c1.25,0,2.49,0,3.72.1-1-.52-1.93-1-2.86-1.49l-.86,0a73.64,73.64,0,0,0-18.48,2.35c.58.16,1.49.43,2.69.82A72,72,0,0,1,128.09,43.78Z"/><path class="cls-7" d="M191.56,150.5a72.94,72.94,0,0,1-9.75,13.77c-.06.75-.1,1.49-.16,2.24a74,74,0,0,0,9.89-13.15C191.55,152.4,191.57,151.44,191.56,150.5Z"/><path class="cls-7" d="M57.91,98.93l-1.52.32a74,74,0,0,0-1.62,9.84l1.44-.25A70.48,70.48,0,0,1,57.91,98.93Z"/><path class="cls-7" d="M152.4,48l.78-1.22a73.25,73.25,0,0,0-9.35-2.7c-.27.43-.56.84-.84,1.26A72.4,72.4,0,0,1,152.4,48Z"/><path class="cls-7" d="M190.41,79.56l1.2-.75a72.62,72.62,0,0,0-5.23-7.72l-1.2.75A72.62,72.62,0,0,1,190.41,79.56Z"/><path class="cls-7" d="M63.31,148l-1.2.75a73.35,73.35,0,0,0,4.66,8.08L68,156A71.78,71.78,0,0,1,63.31,148Z"/><path class="cls-7" d="M100.16,182.65l-1,1.08a73.25,73.25,0,0,0,9.74,3.39c.38-.39.77-.76,1.15-1.14A73,73,0,0,1,100.16,182.65Z"/><path class="cls-7" d="M198.34,132.81l1.54-.4a74.37,74.37,0,0,0,1.57-10l-1.44.31A72.7,72.7,0,0,1,198.34,132.81Z"/></svg>