<svg id="Layer_1" data-name="Layer 1" xmlns="http://www.w3.org/2000/svg" viewBox="0 0 300 300"><defs><style>.cls-1{fill:#fff3e3;}.cls-2{fill:#cacce7;}.cls-3{fill:#b9e1d6;}.cls-4{fill:#b8e2e6;}.cls-5{fill:#41c2cc;}.cls-6{fill:#21becb;}.cls-7{fill:#fdc68b;}.cls-8{fill:#2cb997;}.cls-9{fill:#616fb4;}</style></defs><rect class="cls-1" x="23.78" y="49.65" width="247.8" height="203.94"/><rect class="cls-2" x="123.71" y="149.26" width="80.25" height="127.58"/><rect class="cls-3" x="200.1" y="149.26" width="80.25" height="127.58"/><path class="cls-4" d="M61,21.65H236.65a10.93,10.93,0,0,1,10.92,10.93V87.91a10.92,10.92,0,0,1-10.92,10.93H137.33l-17.44,19.8-18.32-19.5H61A10.92,10.92,0,0,1,50.08,88.22V32.58A10.93,10.93,0,0,1,61,21.65Z"/><rect class="cls-5" x="20.2" y="124.34" width="89.9" height="137.18"/><circle class="cls-4" cx="66.02" cy="217.44" r="26.31"/><path class="cls-6" d="M111.52,57.88V37.83H87.89v8.35c0,7.63.13,15.25,0,22.87-.16,6.84-4.66,11.82-10.75,12.36a12,12,0,0,1-12.91-9.19,11.85,11.85,0,0,1,11.55-14.6c1.15,0,2.3.16,3.86.27V29.75h39.92a14.42,14.42,0,0,1,.33,2.23c0,12.25.1,24.49,0,36.73-.08,8.6-7.24,14.46-14.91,12.44-6-1.58-10-7.63-9-13.38a11.86,11.86,0,0,1,12.84-10.08ZM77.09,73.52c.7-1.08,2.31-2.53,2.53-4.16.32-2.35-1.52-3.85-3.88-3.78a3.6,3.6,0,0,0-3.74,4C72,72.14,73.59,73.24,77.09,73.52Zm35.21-3.3,0-1.66c-1.52-1-3-2.69-4.59-2.88-2.27-.27-3.75,1.44-3.71,3.93s1.67,4.07,3.92,3.67C109.48,73,110.83,71.29,112.3,70.22Z"/><path class="cls-6" d="M207.61,57.86V29.7h15.66v7.79H215.9V45.3h7.28v8.1h-7.53c0,5.6.1,10.86,0,16.12C215.44,77.31,208.29,83,201,81.21c-5.86-1.41-10-7.17-9.31-12.83a11.86,11.86,0,0,1,12.6-10.73Zm-.09,10.43c-.93-.67-2.32-2.38-3.93-2.62-2.25-.33-3.83,1.36-3.85,3.82a3.56,3.56,0,0,0,3.87,3.89C206,73.39,207.42,72,207.52,68.29Z"/><path class="cls-6" d="M151.8,37.59c0,10.68,0,20.82,0,31-.05,7.53-5.11,12.87-12,12.87a12.11,12.11,0,0,1-12.05-12.16,12,12,0,0,1,12.17-11.65c1.13,0,2.25.13,3.7.22V29.76h19.82v7.83Zm-8,31.15c-.93-.81-2.15-2.65-3.73-3-2.23-.56-3.93,1-4.17,3.43s1,4,3.45,4.23S143.25,72.35,143.81,68.74Z"/><path class="cls-6" d="M183.73,29.78c0,8.7,0,17.21,0,25.73,0,4.73.13,9.46,0,14.18A12.12,12.12,0,0,1,173,81.41,11.87,11.87,0,0,1,160,72a11.49,11.49,0,0,1,7.4-13.54c2.42-.8,5.13-.7,8.06-1V29.78Zm-8.18,38.36c-1-.63-2.43-2.29-4-2.46-2.26-.24-3.76,1.47-3.69,4a3.52,3.52,0,0,0,4,3.73C174.22,73.3,175.55,71.86,175.55,68.14Z"/><path class="cls-7" d="M195.76,130.92V113.6h7.78v17.32Z"/><path class="cls-7" d="M227.07,121.41l6.12,5-9.72,11.86-6.19-5Z"/><path class="cls-7" d="M181.92,133.54l-6.19,5-9.64-11.84,6.21-5Z"/><path class="cls-8" d="M211.66,173v-7.33h47.51V173Z"/><path class="cls-8" d="M211.68,209v-7.39h47.56V209Z"/><path class="cls-8" d="M211.69,244.91v-7.29H259.2v7.29Z"/><path class="cls-8" d="M243.2,225H211.73v-7.51H243.2Z"/><path class="cls-8" d="M243.34,253.58v7.54H211.81v-7.54Z"/><path class="cls-8" d="M259.22,189.24h-23.3V181.5h23.3Z"/><path class="cls-8" d="M227.38,181.57v7.6H211.73v-7.6Z"/><path class="cls-9" d="M164,213.05c1.72.31,3.43.5,5.09.92,4.93,1.27,9.08,3.59,10.4,9,1.26,5.2-1.37,12-5.9,15a20.11,20.11,0,0,1-6.91,2.9c-2.53.49-3.25,1.55-3,3.91a29,29,0,0,1,0,4.84,12,12,0,0,1-11.57,11.55c-6.63.11-11.56-4.33-12.22-11.09-.14-1.46,0-2.94,0-4.62h7.9c0,1.21,0,2.42,0,3.64.07,2.45,1.45,4,3.78,4.15s3.82-1.55,4-3.88a38,38,0,0,0,.06-6.91,3.17,3.17,0,0,0-1.82-2c-9.25-3.82-13.86-10-13.95-19s4.74-15.39,14-19.37c.93-.4,1.76-2.18,1.79-3.34.2-7.5,0-15,.29-22.51a11.76,11.76,0,0,1,23-2.35,35,35,0,0,1,.54,10.63,32.65,32.65,0,0,1-9.29,20.34,9.88,9.88,0,0,1-3.59,2.64C163.88,208.39,163.07,210,164,213.05Zm-.25-13.61c6-4.74,10-16.61,7.6-23.07a5,5,0,0,0-4-2.62c-1.31.16-3.37,2.15-3.42,3.41C163.53,184.49,163.7,191.84,163.7,199.44Zm-8.19,10.83c-5.58,2.51-8.32,7.08-7.75,12.3.51,4.68,3.63,8.47,7.75,9.34Zm8.32,22.78c4.89-.36,8-3.37,7.8-7.46-.15-2.73-3.1-4.23-7.8-3.87Z"/><path class="cls-5" d="M110.1,261.52H20.2V124.34h89.9Zm-81.38-8.33h72.85V132.67H28.72Z"/><circle class="cls-6" cx="66.02" cy="217.25" r="15.8"/><circle class="cls-4" cx="65.24" cy="161.27" r="19.97"/><circle class="cls-6" cx="65.24" cy="161.13" r="12"/></svg>