<svg id="Layer_1" data-name="Layer 1" xmlns="http://www.w3.org/2000/svg" viewBox="0 0 300 300"><defs><style>.cls-1{fill:#fff3e3;}.cls-2{fill:#b8e2e6;}.cls-3{fill:#2cb997;}.cls-4{fill:#616fb4;}.cls-5{fill:#41c2cc;}.cls-6{fill:#faae61;}.cls-7{fill:#fdc68b;}.cls-8{fill:#cacce7;}</style></defs><rect class="cls-1" x="28.33" y="39.47" width="251.31" height="206.82"/><path class="cls-2" d="M88.35,93.13s.11,5.83-10.43,19l-15,25.53S56,149,62.94,159.11c0,0,4.26,9,17.69,9.41H140s14.12-2.17,17.29-15.75c0,0,4.69-7.4-7.54-23.37l-22-36.27Z"/><path class="cls-3" d="M186.22,137.94h8c0,4.84.29,9.51-.1,14.13-.3,3.63,1,5.71,4.22,7a30.13,30.13,0,0,1,3.53,1.95c3-3.12,6.07-6.35,9.25-9.43a5.42,5.42,0,0,1,3.21-1.66c12.05-.11,24.11-.07,36.41-.07V158h-4.87c-8.55,0-17.1.1-25.65-.06-2.79-.06-4.67,1-6.82,2.68-4.91,4-6.4,8.66-6.25,14.9.12,4.83,1.61,7.21,5.7,9.73,6.47,4,13,6.05,20.52,5.2a50.28,50.28,0,0,1,5.37,0v7.92H223v8.18h15.65v8.05c-4.67,0-9.43.18-14.17-.06a16.68,16.68,0,0,0-10.25,2.69c-3.43,2.19-7.11,5.41-10.73,5.47-3.45.06-7.15-3.09-10.38-5.35-3.43-2.4-6.43-2.76-9.65,0-6.94,6-13.29,5.31-21.11.39-6.27-3.94-9.88-7.5-8.58-15.15.66-3.87-1-8.66.72-11.68s6.26-4.65,9.86-6.24c3.94-1.74,5.2-4.26,4.84-8.43-.33-3.94-1.19-8.68.56-11.7s6.26-4.66,9.86-6.23c5.26-2.28,7.73-5.6,6.72-11.51C185.82,144,186.22,141,186.22,137.94Zm-1.88,63.62c-.39-2.35,0-5.4-1.23-6.44-3-2.47-6.77-5.47-10.23-5.47s-7.43,2.87-10.17,5.52c-1.43,1.38-.86,5-.88,7.62,0,1.77-.12,4.4.92,5.16,3.14,2.31,6.81,5.33,10.3,5.37,3.33,0,7.06-2.91,9.9-5.38C184.28,206.78,183.94,203.68,184.34,201.56Zm30.39-.05c-.32-2.18.15-5.37-1.14-6.47-3-2.48-6.75-5.37-10.24-5.41-3.33,0-6.83,3.13-10,5.31-.83.59-.81,2.72-.8,4.14,0,3-.8,7,.76,8.69,2.5,2.78,6.65,5.56,10.11,5.57s7.24-3,10.23-5.47C214.9,206.86,214.42,203.78,214.73,201.51ZM176.8,175c.36,2.24-.08,5.41,1.23,6.51,2.95,2.48,6.74,5.36,10.23,5.41,3.33,0,7.28-2.73,9.84-5.36,1.48-1.52.93-5.2,1-7.91,0-1.76.08-4.35-.95-5.13-3-2.29-6.63-5.37-10-5.3-3.49.07-7.22,3-10.2,5.53C176.73,169.74,177.15,172.77,176.8,175Z"/><path class="cls-4" d="M215.8,34.55c4.53-9.3,11.42-14.5,21.74-14.21,8.6.24,15,4.36,18.92,11.88s3.49,15.4-1.31,22.63a5.55,5.55,0,0,0-.89,5.37c3.26,11.15-5.2,21.38-17,20.56-2.22-.15-3.51.28-4.48,2.21a19,19,0,0,1-2.13,3.21c-3.2,4-5.2,7.46-1.48,13s1.06,14-4.17,18.35a16.21,16.21,0,0,1-26-17.14,15.55,15.55,0,0,1,15.66-11.15c3.3.22,5.32-.59,6.62-3.54a10.3,10.3,0,0,1,1.54-2.34c3.08-3.82,5.49-7.33,1.34-12.34-1.56-1.9-.87-5.59-1.41-8.42a8.78,8.78,0,0,0-1.57-4.17c-3.31-3.66-5.81-7.69-6.31-12.64-.28-2.65-1.46-3.92-4-4.29a10.21,10.21,0,0,1-2.69-.77c-2.55-1.15-4.49-.94-6.78,1.18-3.71,3.42-9.88,3.29-14,.39a11.9,11.9,0,0,1-4.91-12.91c1.45-5.29,5.6-8.8,10.74-9.09,5.69-.31,10.69,2.34,12.08,7.58,1,3.7,3.08,4.78,6.22,5.37A43.3,43.3,0,0,1,215.8,34.55Zm31.88,16.54a13.61,13.61,0,0,0-2.17-19.71A14.13,14.13,0,0,0,226,33.32a13.74,13.74,0,0,0,1.66,19.54C233.87,47.82,240.62,47.11,247.68,51.09Zm-33.15,62.17a8.17,8.17,0,0,0,8.1-8,8.44,8.44,0,0,0-8-8.19,8.07,8.07,0,0,0-8.13,8.24A7.84,7.84,0,0,0,214.53,113.26Zm32.25-48.43A7.88,7.88,0,0,0,239,56.75a8.11,8.11,0,0,0-8.3,8.08,8.31,8.31,0,0,0,8.13,8A8,8,0,0,0,246.78,64.83Zm-57-33.62-.1,1.67c1.43,1.17,2.73,3,4.34,3.35,2.23.45,4-1.12,4.15-3.63s-1.4-4.3-3.66-4.15C192.91,28.56,191.38,30.23,189.81,31.21Z"/><path class="cls-3" d="M254.81,198.19H247v-7.57h7.78Z"/><path class="cls-3" d="M250.77,133.83v7.57H243v-7.57Z"/><path class="cls-3" d="M254.83,214.39h-7.76v-7.51h7.76Z"/><path class="cls-3" d="M234.58,141.46h-7.75v-7.62h7.75Z"/><path class="cls-3" d="M210.52,141.37v-7.51h7.86v7.51Z"/><path class="cls-3" d="M186.48,121.71H194v7.54h-7.48Z"/><path class="cls-5" d="M121.76,129.4l-5.42-5.33,5.52-5.66,5.88,5.68C125.61,126,123.74,127.64,121.76,129.4Z"/><path class="cls-5" d="M80.63,143.47l5-4.87,4.87,5.72L85,149.23Z"/><path class="cls-5" d="M129.59,149.63c-1.47-1.61-3.12-3.4-5-5.39l5.7-5,4.36,5.27Z"/><path class="cls-5" d="M101.25,137.3l-4.93-4.78,5.89-5.31,4.87,5.25Z"/><path class="cls-5" d="M111.06,112.26c-1.66,1.55-3.44,3.19-5.21,4.82l-5.17-5.71,5.3-4.26Z"/><rect class="cls-2" x="27.93" y="20.46" width="24.23" height="230.29"/><rect class="cls-5" x="24.07" y="44.76" width="31.98" height="40.17"/><rect class="cls-2" x="52.16" y="232.27" width="226.81" height="26.88"/><rect class="cls-5" x="54.73" y="60.42" width="35.5" height="8.37"/><rect class="cls-5" x="128.56" y="60.42" width="84.23" height="8.37"/><path class="cls-6" d="M100.9,147.76c-3.27,4.56-7.33,8.54-10.16,13.41-3.14,5.42-2.95,10.47-.82,16.3,1.77,4.83,6.66,8.36,6.93,13.75v8.41h24.62v-11a4.89,4.89,0,0,1,2.67-3.6s12-10.08,0-28.15c0,0-4.86-10.6-11-16.8L105,152.24Z"/><path class="cls-7" d="M101,160.69l4.5,5.31,8.1-11.83s9.23,10.87,7.58,18.29c0,0,.85,10.6-11.88,11.19,0,0-10.5,1.35-12.08-11.83C97.17,171.82,95.59,168.18,101,160.69Z"/><path class="cls-6" d="M136.46,214.73l-6.23-15.1h-43L81,214.73C72.89,219.88,74.39,232,74.39,232h68.72S144.6,219.88,136.46,214.73Z"/><rect class="cls-5" x="88.35" y="77.12" width="40.79" height="16.02"/><rect class="cls-5" x="90.24" y="39.47" width="36.07" height="13"/><rect class="cls-2" x="84.25" y="52.47" width="48.66" height="25.54"/><path class="cls-5" d="M263.94,60.85V245.71H20.48v33.45H48.23l.44-3.44h80.48l.48,3.42H157.9v-20H279V60.85Z"/><circle class="cls-8" cx="194.15" cy="32.02" r="6.36"/><circle class="cls-8" cx="214.11" cy="105.06" r="9.93"/><circle class="cls-8" cx="238.72" cy="65.23" r="8.66"/><path class="cls-8" d="M227.62,52.86s8.06-8,20.06-1.77c0,0,8.48-10.27-2.17-19.71a14.56,14.56,0,0,0-11.07-2.86,13.55,13.55,0,0,0-11.49,11S221,47.88,227.62,52.86Z"/></svg>